============ Rise Against - Make it Stop Septembers Children s HD 1080p=========== 

Format                           : MPEG-4
Format profile                   : Base Media / Version 2
Codec ID                         : mp42
File size                        : 150 MiB
Duration                         : 4mn 9s
Overall bit rate                 : 5 049 Kbps
Encoded date                     : UTC 2011-06-15 01:47:43
Tagged date                      : UTC 2011-06-15 01:47:43
gsst                             : 0
gstd                             : 249858
gssd                             : BCA9FD844HH1308687507836135
gshh                             :

Video
ID                               : 1
Format                           : AVC
Format/Info                      : Advanced Video Codec
Format profile                   : High@L4.0
Format settings, CABAC           : Yes
Format settings, ReFrames        : 1 frame
Codec ID                         : avc1
Codec ID/Info                    : Advanced Video Coding
Duration                         : 4mn 9s
Bit rate mode                    : Variable
Bit rate                         : 4 896 Kbps
Maximum bit rate                 : 10.8 Mbps
Width                            : 1 920 pixels
Height                           : 1 080 pixels
Display aspect ratio             : 16:9
Frame rate mode                  : Variable
Frame rate                       : 23.976 fps
Minimum frame rate               : 17.241 fps
Maximum frame rate               : 24.390 fps
Color space                      : YUV
Chroma subsampling               : 4:2:0
Bit depth                        : 8 bits
Scan type                        : Progressive
Bits/(Pixel*Frame)               : 0.098
Stream size                      : 146 MiB (97%)
Tagged date                      : UTC 2011-06-15 01:47:49

Audio
ID                               : 2
Format                           : AAC
Format/Info                      : Advanced Audio Codec
Format version                   : Version 4
Format profile                   : LC
Format settings, SBR             : No
Codec ID                         : 40
Duration                         : 4mn 9s
Bit rate mode                    : Variable
Bit rate                         : 147 Kbps
Maximum bit rate                 : 172 Kbps
Channel(s)                       : 2 channels
Channel positions                : Front: L R
Sampling rate                    : 44.1 KHz
Stream size                      : 4.39 MiB (3%)
Title                            : IsoMedia File Produced by Google, 5-11-2011
Encoded date                     : UTC 2011-06-15 01:47:46
Tagged date                      : UTC 2011-06-15 01:47:49

============================SCREEN SHOTS ==========================================
                   
                  
                   http://bayimg.com/nAIahaaDm
                   http://bayimg.com/naIaLAaDm
                   http://bayimg.com/NaiAnAAdm

========================ARTIST/BAND/GROUP INFO ===================================

Rise Against:
              is an American punk rock band from Chicago, Illinois, formed in 1999. The band currently consists of Tim McIlrath (lead vocals, rhythm guitar), Zach Blair (lead guitar, backing vocals), Joe Principe (bass guitar, backing vocals) and Brandon Barnes (drums, percussion).

==============================MUSIC GENRE=========================================
  
  Genres Alternative rock, Hardcore punk, Punk Rock, Melodic hardcore

============================ FOLLOW ME ON TWEETER AND FACEBOOK =================

        SEARCH FOR   haunting_summer

  http: // www. facebook. com/ pages/ HaUnTiNgSuMMeR-ToRrEnTs/ 192812490771363

=================================================================================

--------------- PLZ RATE +/- THE QUALITY N COMMENT IF POSSIBLE -----------------
 